<?xml version="1.0" encoding="UTF-8" standalone="no"?>
<!DOCTYPE svg PUBLIC "-//W3C//DTD SVG 1.1//EN" "http://www.w3.org/Graphics/SVG/1.1/DTD/svg11.dtd">
<svg width="100%" height="100%" viewBox="0 0 400 400" version="1.1" xmlns="http://www.w3.org/2000/svg" xmlns:xlink="http://www.w3.org/1999/xlink" xml:space="preserve" xmlns:serif="http://www.serif.com/" style="fill-rule:evenodd;clip-rule:evenodd;stroke-linecap:round;stroke-linejoin:round;stroke-miterlimit:1.5;">
    <g>
        <g>
            <g id="Ebene1" transform="matrix(1.12794,0,0,1.12794,-60.1616,-61.0662)">
                <g transform="matrix(0.999999,-0.00109677,0.00109677,0.999999,-1.73533,58.3484)">
                    <path d="M145.878,95.219C148.616,100.563 145.101,108.847 149.635,112.558C155.13,117.056 153.44,116.047 159.74,119.521C170.276,125.331 169.703,145.981 176.329,153.639C181.4,159.501 186.885,153.561 194.336,152.77C210.034,151.104 218.471,144.817 214.23,155.036C205.79,175.373 205.663,195.716 204.622,217.919C213.158,215.352 222.76,206.696 230.616,211.078C236.615,214.424 245.551,227.017 245.551,227.017C245.551,227.017 256.339,242.822 261.836,250.011C252.901,246.642 244.852,236.72 235.515,238.459C228.42,239.779 227.415,251.472 221.694,256.128C218.037,259.104 212.893,259.009 208.492,260.45C207.984,249.645 207.984,249.645 207.476,238.84C200.028,241.361 193.812,244.343 186.175,242.578C176.684,240.384 169.158,236.279 162.771,228.495C156.776,221.189 151.603,211.656 148.998,202.362C141.428,175.351 136.525,147.561 131.191,119.952C129.533,111.373 141.547,102.668 145.878,95.219Z" style="fill:rgb(131,211,146);fill-rule:nonzero;"/>
                </g>
                <g transform="matrix(0.999999,-0.00109677,0.00109677,0.999999,-1.73533,58.3484)">
                    <path d="M142.657,103.322C144.248,98.467 142.775,114.855 144.204,118.628C151.422,137.692 160.671,168.919 176.272,189.998C203.273,226.476 224.33,246.605 221.496,248.911C217.839,251.887 214.406,254.146 210.005,255.586C209.497,244.781 209.331,246.156 208.823,235.351C201.375,237.872 196.057,238.872 188.42,237.107C178.929,234.913 174.985,229.648 168.598,221.864C162.604,214.557 158.09,207.725 155.485,198.431C147.914,171.42 145.283,150.644 139.775,123.069C138.076,114.563 138.67,115.49 142.657,103.322Z" style="fill:rgb(5,168,53);fill-rule:nonzero;"/>
                </g>
                <g transform="matrix(0.860491,-0.509466,0.509466,0.860491,-55.5719,107.524)">
                    <ellipse cx="162.565" cy="166.222" rx="10.597" ry="26.746" style="fill:rgb(66,26,142);stroke:rgb(66,27,147);stroke-width:7.09px;"/>
                </g>
            </g>
            <g transform="matrix(0.357126,-1.01995,1.01995,0.357126,73.1074,434.968)">
                <path d="M332.497,113.63C329.693,113.42 326.749,111.504 323.338,110.08C319.558,108.503 317.297,106.556 314.824,104.667C304.897,97.088 288.856,85.033 276.108,78.158C262.707,70.931 254.962,71.827 242.134,65.364C241.008,64.797 231.027,59.428 222.689,52.683C214.997,46.462 216.993,34.996 216.767,33.129C215.982,26.63 242.161,20.717 249.415,21.196C254.264,21.516 271.22,26.997 275.306,30.44C279.732,34.169 286.488,40.196 291.144,45.859C300.83,57.641 302.957,63.825 310.673,74.419C323.646,92.23 333.277,102.729 335.486,104.75C338.292,107.318 341.172,110.258 340.383,111.006C340.006,111.363 335.181,113.832 332.497,113.63Z" style="fill:rgb(66,26,142);fill-rule:nonzero;"/>
            </g>
            <g transform="matrix(1.19558,0,0,1.19558,-72.3185,-2.91035)">
                <path d="M80.596,22.87C84.008,22.87 94.792,33.363 104.066,41.219C114.245,49.842 121.709,62.124 132.856,69.266C152.536,81.875 172.038,72.817 182.177,99.023C186.908,111.251 189.518,124.291 193.189,136.925C236.479,119.397 282.605,111.155 327.249,98.027C344.506,92.953 361.336,85.699 379.046,82.9C371.916,92.828 359.715,96.522 349.913,103.402C306.853,133.628 276.48,162.257 236.409,195.845C252.586,223.92 275.027,247.48 296.781,270.905C306.99,281.897 318.926,290.824 330.125,300.749C335.407,305.431 344.272,312.621 345.543,319.195C336.41,320.626 320.431,321.574 311.645,315.059C296.727,303.995 284.837,288.639 269.608,278.066C261.602,272.508 251.511,271.417 242.788,267.254C235.957,263.994 230.077,258.6 223.051,255.849C219.759,254.559 215.622,253.633 212.535,255.406C208.631,257.648 208.535,264.982 204.361,266.583C199.783,268.338 187.783,263.594 183.777,259.318C177.705,252.836 185.219,244.228 178.819,238.39C163.665,224.569 150.695,220.969 144.585,200.185C137.792,177.075 133.25,153.262 128.712,129.535C125.034,110.302 127.752,88.712 118.662,71.632C115.762,66.182 112.309,57.946 109.029,53.539C100.319,41.838 80.596,22.87 80.596,22.87ZM143.907,103.535C140.176,109.949 140.246,119.156 141.673,126.544C146.266,150.32 150.128,173.287 156.648,196.548C158.891,204.552 164.941,211.295 170.104,217.587C175.604,224.291 180.704,228.059 188.877,229.949C195.454,231.469 199.468,230.218 205.882,228.047L206.879,246.829C210.669,245.588 215.247,241.612 218.397,239.049C223.323,235.04 224.041,229.028 230.15,227.891C238.191,226.394 243.935,236.307 251.63,239.208C246.896,233.017 236.364,220.788 236.364,220.788C236.364,220.788 229.759,209.168 224.593,206.287C217.828,202.513 209.176,209.543 201.825,211.754C202.722,192.633 201.36,170.364 208.628,152.85C212.28,144.05 207.944,155.542 194.424,156.977C188.008,157.658 177.853,154.877 173.486,149.829C167.78,143.234 168.86,132.925 163.415,126.086C159.555,121.238 155.198,122.174 150.465,118.3C146.561,115.104 146.264,108.137 143.907,103.535ZM181.789,130.568C180.601,125.511 178.904,113.989 178.904,113.989C178.904,113.989 172.369,85.491 155.078,85.491C169.911,101.272 161.252,130.568 181.789,130.568ZM216.128,163.577C214.256,171.633 215.951,181.267 216.463,191.004C217.604,190.512 227.077,188.101 246.222,173.544C255.856,166.218 271.079,151.202 277.296,145.886C279.989,143.582 289.942,133.705 299.73,126.342C308.694,119.598 317.663,115.247 317.805,114.81C319.131,110.747 298.046,118.231 281.609,123.928C272.824,126.973 245.935,131.368 230.866,141.515C219.103,149.437 218.011,155.475 216.128,163.577Z" style="fill:rgb(118,124,247);"/>
            </g>
            <g transform="matrix(1.08066,0,0,1.08066,-36.8894,254.026)">
                <path d="M332.08,112.141C329.276,111.93 326.749,111.504 323.338,110.08C319.558,108.503 317.297,106.556 314.824,104.667C304.897,97.088 291.335,80.504 280.039,71.438C268.565,62.23 266.217,60.503 253.059,54.74C252.102,54.321 240.199,50.342 230.329,45.594C221.414,41.306 215.26,38.511 215.034,36.644C214.249,30.145 220.676,26.31 227.93,26.789C232.779,27.109 249.118,36.911 253.205,40.353C257.631,44.082 265.835,49.698 271.7,54.098C282.612,62.284 290.995,68.921 301.72,78.149C318.424,92.52 333.277,102.729 335.486,104.75C338.292,107.318 341.172,110.258 340.383,111.006C340.006,111.363 334.765,112.342 332.08,112.141Z" style="fill:rgb(66,26,142);fill-rule:nonzero;"/>
            </g>
        </g>
    </g>
</svg>
