<?xml version="1.0" encoding="UTF-8" standalone="no"?>
<!DOCTYPE svg PUBLIC "-//W3C//DTD SVG 1.1//EN" "http://www.w3.org/Graphics/SVG/1.1/DTD/svg11.dtd">
<svg width="100%" height="100%" viewBox="0 0 400 400" version="1.1" xmlns="http://www.w3.org/2000/svg" xmlns:xlink="http://www.w3.org/1999/xlink" xml:space="preserve" xmlns:serif="http://www.serif.com/" style="fill-rule:evenodd;clip-rule:evenodd;stroke-linecap:round;stroke-linejoin:round;stroke-miterlimit:10;">
    <g>
        <g>
            <g transform="matrix(1.09435,0,0,1.09435,-14.8086,49.5507)">
                <path d="M80.596,22.87C84.008,22.87 94.792,33.363 104.066,41.219C114.245,49.842 121.709,62.124 132.856,69.266C152.536,81.875 172.038,72.817 182.177,99.023C186.908,111.251 189.518,124.291 193.189,136.925C236.479,119.397 282.605,111.155 327.249,98.027C344.506,92.953 361.336,85.699 379.046,82.9C371.916,92.828 359.715,96.522 349.913,103.402C306.853,133.628 276.48,162.257 236.409,195.845C252.586,223.92 275.027,247.48 296.781,270.905C306.99,281.897 318.926,290.824 330.125,300.749C335.407,305.431 344.272,312.621 345.543,319.195C336.41,320.626 320.431,321.574 311.645,315.059C296.727,303.995 284.837,288.639 269.608,278.066C261.602,272.508 251.511,271.417 242.788,267.254C235.957,263.994 230.077,258.6 223.051,255.849C219.759,254.559 215.622,253.633 212.535,255.406C208.631,257.648 208.535,264.982 204.361,266.583C199.783,268.338 187.783,263.594 183.777,259.318C177.705,252.836 185.219,244.228 178.819,238.39C163.665,224.569 150.695,220.969 144.585,200.185C137.792,177.075 133.25,153.262 128.712,129.535C125.034,110.302 127.752,88.712 118.662,71.632C115.762,66.182 112.309,57.946 109.029,53.539C100.319,41.838 80.596,22.87 80.596,22.87ZM143.907,103.535C140.176,109.949 140.246,119.156 141.673,126.544C146.266,150.32 150.128,173.287 156.648,196.548C158.891,204.552 164.941,211.295 170.104,217.587C175.604,224.291 180.704,228.059 188.877,229.949C195.454,231.469 199.59,230.391 206.004,228.219L206.879,246.829C210.669,245.588 215.247,241.612 218.397,239.049C223.323,235.04 224.041,229.028 230.15,227.891C238.191,226.394 243.935,236.307 251.63,239.208C246.896,233.017 236.364,220.788 236.364,220.788C236.364,220.788 229.759,209.168 224.593,206.287C217.828,202.513 209.225,209.229 201.874,211.44C202.77,192.319 201.36,170.364 208.628,152.85C212.28,144.05 207.944,155.542 194.424,156.977C188.008,157.658 177.853,154.877 173.486,149.829C167.78,143.234 168.86,132.925 163.415,126.086C159.555,121.238 155.198,122.174 150.465,118.3C146.561,115.104 146.264,108.137 143.907,103.535ZM181.789,130.568C180.601,125.511 178.904,113.989 178.904,113.989C178.904,113.989 172.369,85.491 155.078,85.491C169.911,101.272 161.252,130.568 181.789,130.568ZM216.128,163.577C214.256,171.633 215.951,181.267 216.463,191.004C217.604,190.512 227.077,188.101 246.222,173.544C255.856,166.218 271.079,151.202 277.296,145.886C279.989,143.582 289.942,133.705 299.73,126.342C308.694,119.598 317.663,115.247 317.805,114.81C319.131,110.747 298.046,118.231 281.609,123.928C272.824,126.973 245.935,131.368 230.866,141.515C219.103,149.437 218.011,155.475 216.128,163.577Z"/>
            </g>
            <g transform="matrix(1.16728,0,0,-1.16728,-21.6156,227.442)">
                <path d="M22.504,23.509C46.406,25.057 69.587,191.183 46.045,190.991C17.664,190.758 39.315,23.457 59.649,24.129C81.385,24.847 81.392,128.373 81.392,128.373" style="fill:none;fill-rule:nonzero;stroke:black;stroke-width:6.85px;"/>
            </g>
        </g>
    </g>
</svg>
