<?xml version="1.0" encoding="UTF-8" standalone="no"?>
<!DOCTYPE svg PUBLIC "-//W3C//DTD SVG 1.1//EN" "http://www.w3.org/Graphics/SVG/1.1/DTD/svg11.dtd">
<svg width="100%" height="100%" viewBox="0 0 400 400" version="1.1" xmlns="http://www.w3.org/2000/svg" xmlns:xlink="http://www.w3.org/1999/xlink" xml:space="preserve" xmlns:serif="http://www.serif.com/" style="fill-rule:evenodd;clip-rule:evenodd;stroke-linejoin:round;stroke-miterlimit:2;">
    <g transform="matrix(1.34026,0,0,1.34026,-108.02,-29.1983)">
        <g>
            <path d="M80.596,22.87C84.008,22.87 94.587,30.481 104.066,39.727C113.617,49.042 121.709,62.124 132.856,69.266C152.536,81.875 172.038,72.817 182.177,99.023C186.908,111.251 189.518,124.291 193.189,136.925C236.479,119.397 282.605,111.155 327.249,98.027C344.506,92.953 361.336,85.699 379.046,82.9C371.916,92.828 359.715,96.522 349.913,103.402C306.853,133.628 276.48,162.257 236.409,195.845C252.586,223.92 275.027,247.48 296.781,270.905C306.99,281.897 318.926,290.824 330.125,300.749C335.407,305.431 344.272,312.621 345.543,319.195C336.41,320.626 320.431,321.574 311.645,315.059C296.727,303.995 284.837,288.639 269.608,278.066C261.602,272.508 251.511,271.417 242.788,267.254C235.957,263.994 230.077,258.6 223.051,255.849C219.759,254.559 215.622,253.633 212.535,255.406C208.631,257.648 208.535,264.982 204.361,266.583C199.783,268.338 187.783,263.594 183.777,259.318C177.705,252.836 185.219,244.228 178.819,238.39C163.665,224.569 150.695,220.969 144.585,200.185C137.792,177.075 133.25,153.262 128.712,129.535C125.034,110.302 126.26,88.712 117.17,71.632C114.269,66.182 108.994,57.508 105.713,53.101C97.003,41.401 80.596,22.87 80.596,22.87Z"/>
        </g>
    </g>
</svg>
