<?xml version="1.0" encoding="UTF-8" standalone="no"?>
<!DOCTYPE svg PUBLIC "-//W3C//DTD SVG 1.1//EN" "http://www.w3.org/Graphics/SVG/1.1/DTD/svg11.dtd">
<svg width="100%" height="100%" viewBox="0 0 1024 1024" version="1.1" xmlns="http://www.w3.org/2000/svg" xmlns:xlink="http://www.w3.org/1999/xlink" xml:space="preserve" xmlns:serif="http://www.serif.com/" style="fill-rule:evenodd;clip-rule:evenodd;stroke-linejoin:round;stroke-miterlimit:2;">
    <g id="Kolibri" transform="matrix(2.57188,0,0,2.57188,-248.053,-239.44)">
        <g id="Umriss" transform="matrix(1.33407,0,0,1.33407,-11.0725,63.3954)">
            <path d="M80.596,22.87C80.596,22.87 98.354,41.838 107.064,53.539C110.345,57.946 115.762,66.182 118.662,71.632C127.752,88.712 126.675,110.158 129.498,129.535C132.7,151.515 144.576,196.778 149.384,208.187C155.567,222.861 163.665,224.569 178.819,238.39C185.219,244.228 177.705,252.836 183.777,259.318C187.783,263.594 199.783,268.338 204.361,266.583C208.535,264.982 208.631,257.648 212.535,255.406C215.622,253.633 219.759,254.559 223.051,255.849C230.077,258.6 235.957,263.994 242.788,267.254C251.511,271.417 261.602,272.508 269.608,278.066C284.837,288.639 296.727,303.995 311.645,315.059C320.431,321.574 337.627,320.64 345.624,318.745C343.318,311.981 335.407,305.431 330.125,300.749C318.926,290.824 306.99,281.897 296.781,270.905C275.027,247.48 252.586,223.92 236.409,195.845C276.48,162.257 306.853,133.628 349.913,103.402C359.715,96.522 371.916,92.828 379.046,82.9C361.336,85.699 344.506,92.953 327.249,98.027C282.605,111.155 236.479,119.397 193.189,136.925C189.518,124.291 186.908,111.251 182.177,99.023C172.038,72.817 152.536,81.875 132.856,69.266C121.709,62.124 114.371,49.501 104.557,39.746C95.937,31.177 85.966,22.22 80.596,22.87Z" style="fill:rgb(108,116,246);fill-rule:nonzero;"/>
        </g>
        <g id="Bauch">
            <g transform="matrix(1.33407,0,0,1.33407,-11.0725,49.9735)">
                <path d="M132.1,94.055C136.048,97.326 139.272,106.234 143.58,110.087C148.874,114.82 154.37,113.748 158.852,119.377C165.175,127.319 165.611,139.046 172.638,146.581C177.924,152.25 183.313,161.1 190.764,160.31C206.463,158.644 210.84,150.796 206.599,161.016C198.159,181.352 210.132,192.201 209.091,214.404C217.627,211.836 219.425,209.372 226.164,213.029C232.2,216.306 235.796,228.687 241.293,235.876C220.67,235.362 227.093,250.41 220.597,253.904C216.343,256.192 212.807,255.402 208.406,256.842C207.898,246.038 208.002,252.939 207.494,242.134C200.046,244.656 174.032,230.118 167.749,222.249C147.071,196.347 130.002,103.697 132.1,94.055Z" style="fill:rgb(131,211,146);fill-rule:nonzero;"/>
            </g>
            <g transform="matrix(1.33407,0,0,1.33407,-11.0725,49.9735)">
                <path d="M132.163,94.055C132.551,94.812 135.74,105.63 136.989,111.617C137.95,116.225 157.779,169.534 172.551,191.8C197.641,229.618 223.891,252.512 220.586,254.068C215.575,256.428 212.25,256.258 207.849,257.698C207.655,250.545 206.314,247.924 206.177,244.153C189.613,245.32 174.87,230.099 167.749,222.98C147.87,203.107 129.779,102.418 132.163,94.055Z" style="fill:rgb(5,168,53);fill-rule:nonzero;"/>
            </g>
        </g>
        <g id="Konturen">
            <g transform="matrix(1.33407,0,0,1.33407,-12.6606,95.8457)">
                <path d="M219.185,135.964C223.286,129.783 272.793,109.283 288.025,102.939C295.135,99.977 310.905,97.204 310.576,97.896C306.419,106.629 233.133,164.774 223.729,165.577C222.98,156.018 214.754,142.641 219.185,135.964Z" style="fill:rgb(66,26,142);fill-rule:nonzero;"/>
            </g>
            <g transform="matrix(1.33407,0,0,1.33407,-11.0725,337.289)">
                <path d="M327.24,108.257C326.238,108.266 323.015,108.255 319.542,107.372C315.572,106.362 312.817,102.671 310.344,100.783C300.417,93.204 288.017,80.155 276.722,71.089C265.248,61.881 264,61.849 250.609,57.575C248.715,56.97 231.34,48.687 230.865,44.752C230.08,38.253 233.591,30.475 240.846,30.954C245.695,31.274 251.055,33.573 255.141,37.015C267.804,47.683 286.109,65.336 302.598,79.522C319.301,93.894 327.163,100.802 328.021,101.614C331.905,105.289 333.275,107.016 333.248,107.046C333.221,107.075 329.413,108.239 327.24,108.257Z" style="fill:rgb(66,26,142);fill-rule:nonzero;"/>
            </g>
            <g transform="matrix(1.33407,0,0,1.33407,-11.0725,-109.038)">
                <path d="M183.152,263.366C162.906,258.802 169.755,228.246 152.347,213.832C176.83,217.142 177.576,243.81 183.152,263.366Z" style="fill:rgb(66,26,142);fill-rule:nonzero;"/>
            </g>
        </g>
    </g>
</svg>
